<svg width="30" height="30" viewBox="0 0 30 30" fill="none" xmlns="http://www.w3.org/2000/svg">
<path fill-rule="evenodd" clip-rule="evenodd" d="M4.75345 6.17429C4.69122 6.66785 4.68751 7.28724 4.68751 8.125C4.68751 8.96608 4.68813 9.58578 4.74732 10.0819C4.80564 10.5708 4.90925 10.8138 5.02465 10.9585C5.1288 11.0891 5.32794 11.2462 5.81699 11.3683C6.32102 11.4942 7.05233 11.5625 8.12501 11.5625C9.19769 11.5625 9.929 11.4942 10.433 11.3683C10.9221 11.2462 11.1212 11.0891 11.2254 10.9585C11.3408 10.8138 11.4444 10.5708 11.5027 10.0819C11.5619 9.58578 11.5625 8.96608 11.5625 8.125C11.5625 7.28724 11.5588 6.66785 11.4966 6.17429C11.4353 5.68803 11.3291 5.44284 11.2102 5.29545C11.1019 5.16111 10.8983 5.00351 10.4116 4.8815C9.90988 4.75576 9.18474 4.6875 8.12501 4.6875C7.06528 4.6875 6.34013 4.75576 5.83846 4.8815C5.35167 5.00351 5.14816 5.16111 5.03982 5.29545C4.92096 5.44284 4.81475 5.68803 4.75345 6.17429ZM5.38261 3.06276C6.10811 2.88092 7.01481 2.8125 8.12501 2.8125C9.23521 2.8125 10.1419 2.88092 10.8674 3.06276C11.6078 3.24833 12.2268 3.5692 12.6697 4.11841C13.1021 4.65459 13.2759 5.29805 13.3568 5.93975C13.4368 6.57414 13.4375 7.322 13.4375 8.125C13.4375 8.14858 13.4375 8.1721 13.4375 8.19559C13.4376 8.96865 13.4376 9.69085 13.3645 10.304C13.2883 10.9431 13.121 11.5887 12.6913 12.1276C12.2503 12.6806 11.63 13.002 10.8873 13.1874C10.1595 13.3692 9.24675 13.4375 8.12501 13.4375C7.00327 13.4375 6.09049 13.3692 5.36275 13.1874C4.62004 13.002 3.99973 12.6806 3.55874 12.1276C3.12899 11.5887 2.96176 10.9431 2.88552 10.304C2.81237 9.69085 2.81244 8.96865 2.8125 8.19559C2.81251 8.1721 2.81251 8.14858 2.81251 8.125C2.81251 7.322 2.81319 6.57414 2.89317 5.93975C2.97407 5.29805 3.14789 4.65459 3.5803 4.11841C4.02322 3.5692 4.64222 3.24833 5.38261 3.06276Z" fill="#222222"/>
<path fill-rule="evenodd" clip-rule="evenodd" d="M18.5034 6.17429C18.4412 6.66785 18.4375 7.28724 18.4375 8.125C18.4375 8.96608 18.4381 9.58578 18.4973 10.0819C18.5556 10.5708 18.6593 10.8138 18.7746 10.9585C18.8788 11.0891 19.0779 11.2462 19.567 11.3683C20.071 11.4942 20.8023 11.5625 21.875 11.5625C22.9477 11.5625 23.679 11.4942 24.183 11.3683C24.6721 11.2462 24.8712 11.0891 24.9754 10.9585C25.0908 10.8138 25.1944 10.5708 25.2527 10.0819C25.3119 9.58578 25.3125 8.96608 25.3125 8.125C25.3125 7.28724 25.3088 6.66785 25.2466 6.17429C25.1853 5.68803 25.0791 5.44284 24.9602 5.29545C24.8519 5.16111 24.6483 5.00351 24.1616 4.8815C23.6599 4.75576 22.9347 4.6875 21.875 4.6875C20.8153 4.6875 20.0901 4.75576 19.5885 4.8815C19.1017 5.00351 18.8982 5.16111 18.7898 5.29545C18.671 5.44284 18.5648 5.68803 18.5034 6.17429ZM19.1326 3.06276C19.8581 2.88092 20.7648 2.8125 21.875 2.8125C22.9852 2.8125 23.8919 2.88092 24.6174 3.06276C25.3578 3.24833 25.9768 3.5692 26.4197 4.11841C26.8521 4.65459 27.0259 5.29805 27.1068 5.93975C27.1868 6.57414 27.1875 7.322 27.1875 8.125C27.1875 8.14858 27.1875 8.1721 27.1875 8.19559C27.1876 8.96865 27.1876 9.69085 27.1145 10.304C27.0383 10.9431 26.871 11.5887 26.4413 12.1276C26.0003 12.6806 25.38 13.002 24.6373 13.1874C23.9095 13.3692 22.9967 13.4375 21.875 13.4375C20.7533 13.4375 19.8405 13.3692 19.1127 13.1874C18.37 13.002 17.7497 12.6806 17.3087 12.1276C16.879 11.5887 16.7118 10.9431 16.6355 10.304C16.5624 9.69085 16.5624 8.96865 16.5625 8.19559C16.5625 8.1721 16.5625 8.14858 16.5625 8.125C16.5625 7.322 16.5632 6.57414 16.6432 5.93975C16.7241 5.29805 16.8979 4.65459 17.3303 4.11841C17.7732 3.5692 18.3922 3.24833 19.1326 3.06276Z" fill="#222222"/>
<path fill-rule="evenodd" clip-rule="evenodd" d="M4.75345 19.9243C4.69122 20.4179 4.68751 21.0372 4.68751 21.875C4.68751 22.7161 4.68813 23.3358 4.74732 23.8319C4.80564 24.3208 4.90925 24.5638 5.02465 24.7085C5.1288 24.8391 5.32794 24.9962 5.81699 25.1183C6.32102 25.2442 7.05233 25.3125 8.12501 25.3125C9.19769 25.3125 9.929 25.2442 10.433 25.1183C10.9221 24.9962 11.1212 24.8391 11.2254 24.7085C11.3408 24.5638 11.4444 24.3208 11.5027 23.8319C11.5619 23.3358 11.5625 22.7161 11.5625 21.875C11.5625 21.0372 11.5588 20.4179 11.4966 19.9243C11.4353 19.438 11.3291 19.1928 11.2102 19.0455C11.1019 18.9111 10.8983 18.7535 10.4116 18.6315C9.90988 18.5058 9.18474 18.4375 8.12501 18.4375C7.06528 18.4375 6.34013 18.5058 5.83846 18.6315C5.35167 18.7535 5.14816 18.9111 5.03982 19.0455C4.92096 19.1928 4.81475 19.438 4.75345 19.9243ZM5.38261 16.8128C6.10811 16.6309 7.01481 16.5625 8.12501 16.5625C9.23521 16.5625 10.1419 16.6309 10.8674 16.8128C11.6078 16.9983 12.2268 17.3192 12.6697 17.8684C13.1021 18.4046 13.2759 19.0481 13.3568 19.6897C13.4368 20.3241 13.4375 21.072 13.4375 21.875C13.4375 21.8986 13.4375 21.9221 13.4375 21.9456C13.4376 22.7187 13.4376 23.4409 13.3645 24.054C13.2883 24.6931 13.121 25.3387 12.6913 25.8776C12.2503 26.4306 11.63 26.752 10.8873 26.9374C10.1595 27.1192 9.24675 27.1875 8.12501 27.1875C7.00327 27.1875 6.09049 27.1192 5.36275 26.9374C4.62004 26.752 3.99973 26.4306 3.55874 25.8776C3.12899 25.3387 2.96176 24.6931 2.88552 24.054C2.81237 23.4409 2.81244 22.7187 2.8125 21.9456C2.81251 21.9221 2.81251 21.8986 2.81251 21.875C2.81251 21.072 2.81319 20.3241 2.89317 19.6897C2.97407 19.0481 3.14789 18.4046 3.5803 17.8684C4.02322 17.3192 4.64222 16.9983 5.38261 16.8128Z" fill="#222222"/>
<path fill-rule="evenodd" clip-rule="evenodd" d="M18.5034 19.9243C18.4412 20.4179 18.4375 21.0372 18.4375 21.875C18.4375 22.7161 18.4381 23.3358 18.4973 23.8319C18.5556 24.3208 18.6593 24.5638 18.7746 24.7085C18.8788 24.8391 19.0779 24.9962 19.567 25.1183C20.071 25.2442 20.8023 25.3125 21.875 25.3125C22.9477 25.3125 23.679 25.2442 24.183 25.1183C24.6721 24.9962 24.8712 24.8391 24.9754 24.7085C25.0908 24.5638 25.1944 24.3208 25.2527 23.8319C25.3119 23.3358 25.3125 22.7161 25.3125 21.875C25.3125 21.0372 25.3088 20.4179 25.2466 19.9243C25.1853 19.438 25.0791 19.1928 24.9602 19.0455C24.8519 18.9111 24.6483 18.7535 24.1616 18.6315C23.6599 18.5058 22.9347 18.4375 21.875 18.4375C20.8153 18.4375 20.0901 18.5058 19.5885 18.6315C19.1017 18.7535 18.8982 18.9111 18.7898 19.0455C18.671 19.1928 18.5648 19.438 18.5034 19.9243ZM19.1326 16.8128C19.8581 16.6309 20.7648 16.5625 21.875 16.5625C22.9852 16.5625 23.8919 16.6309 24.6174 16.8128C25.3578 16.9983 25.9768 17.3192 26.4197 17.8684C26.8521 18.4046 27.0259 19.0481 27.1068 19.6897C27.1868 20.3241 27.1875 21.072 27.1875 21.875C27.1875 21.8986 27.1875 21.9221 27.1875 21.9456C27.1876 22.7187 27.1876 23.4409 27.1145 24.054C27.0383 24.6931 26.871 25.3387 26.4413 25.8776C26.0003 26.4306 25.38 26.752 24.6373 26.9374C23.9095 27.1192 22.9967 27.1875 21.875 27.1875C20.7533 27.1875 19.8405 27.1192 19.1127 26.9374C18.37 26.752 17.7497 26.4306 17.3087 25.8776C16.879 25.3387 16.7118 24.6931 16.6355 24.054C16.5624 23.4409 16.5624 22.7187 16.5625 21.9456C16.5625 21.9221 16.5625 21.8986 16.5625 21.875C16.5625 21.072 16.5632 20.3241 16.6432 19.6897C16.7241 19.0481 16.8979 18.4046 17.3303 17.8684C17.7732 17.3192 18.3922 16.9983 19.1326 16.8128Z" fill="#222222"/>
</svg>
