<svg width="30" height="30" viewBox="0 0 30 30" fill="none" xmlns="http://www.w3.org/2000/svg">
<path fill-rule="evenodd" clip-rule="evenodd" d="M9.62817 20.717C9.62817 20.2229 10.0441 19.8223 10.5572 19.8223H19.5002C20.0132 19.8223 20.4292 20.2229 20.4292 20.717C20.4292 21.2111 20.0132 21.6116 19.5002 21.6116H10.5572C10.0441 21.6116 9.62817 21.2111 9.62817 20.717Z" fill="#222222"/>
<path fill-rule="evenodd" clip-rule="evenodd" d="M9.62817 15.723C9.62817 15.2289 10.0441 14.8284 10.5572 14.8284H19.5002C20.0132 14.8284 20.4292 15.2289 20.4292 15.723C20.4292 16.2171 20.0132 16.6177 19.5002 16.6177H10.5572C10.0441 16.6177 9.62817 16.2171 9.62817 15.723Z" fill="#222222"/>
<path fill-rule="evenodd" clip-rule="evenodd" d="M9.6283 10.7407C9.6283 10.2466 10.0442 9.84604 10.5573 9.84604H13.9697C14.4828 9.84604 14.8987 10.2466 14.8987 10.7407C14.8987 11.2348 14.4828 11.6353 13.9697 11.6353H10.5573C10.0442 11.6353 9.6283 11.2348 9.6283 10.7407Z" fill="#222222"/>
<path fill-rule="evenodd" clip-rule="evenodd" d="M19.7384 3.75006C21.6713 3.75006 23.3227 4.36433 24.4901 5.52459C25.6539 6.68138 26.25 8.29468 26.25 10.1403V21.1099C26.25 22.9467 25.6582 24.5528 24.504 25.7077C23.3463 26.8661 21.7079 27.4851 19.79 27.4965L19.7843 27.4965L10.2611 27.5001C8.32829 27.5001 6.67624 26.8858 5.50922 25.7254C4.34572 24.5686 3.75 22.9553 3.75 21.1099V10.1403C3.75 8.30353 4.3414 6.69769 5.4954 5.54298C6.65286 4.38483 8.29096 3.76623 10.2088 3.75485L10.2145 3.75482L19.7384 3.75006ZM19.7386 5.53936C19.7386 5.53936 19.7387 5.53936 19.7386 5.53936L10.2202 5.54412C10.2194 5.54412 10.2185 5.54413 10.2177 5.54413C8.7181 5.55355 7.58929 6.02811 6.83408 6.78378C6.07499 7.54332 5.60797 8.67273 5.60797 10.1403V21.1099C5.60797 22.5854 6.07872 23.7199 6.8438 24.4806C7.6053 25.2377 8.74464 25.7107 10.2601 25.7108C10.2602 25.7108 10.26 25.7108 10.2601 25.7108L19.7785 25.7072C19.7793 25.7072 19.7802 25.7072 19.781 25.7072C21.2805 25.6978 22.4097 25.223 23.1653 24.4669C23.9248 23.707 24.392 22.5773 24.392 21.1099V10.1403C24.392 8.66489 23.9211 7.53042 23.1557 6.76967C22.3939 6.01246 21.254 5.53944 19.7386 5.53936Z" fill="#222222"/>
</svg>
