<svg width="32" height="32" viewBox="0 0 32 32" fill="none" xmlns="http://www.w3.org/2000/svg">
<mask id="mask0_4_265" style="mask-type:alpha" maskUnits="userSpaceOnUse" x="2" y="2" width="28" height="28">
<circle cx="16" cy="16" r="13.3333" fill="#D9D9D9"/>
</mask>
<g mask="url(#mask0_4_265)">
<path fill-rule="evenodd" clip-rule="evenodd" d="M16 27.3334C22.2592 27.3334 27.3334 22.2592 27.3334 16C27.3334 9.74079 22.2592 4.66669 16 4.66669C9.74079 4.66669 4.66669 9.74079 4.66669 16C4.66669 22.2592 9.74079 27.3334 16 27.3334ZM16 29.3334C23.3638 29.3334 29.3334 23.3638 29.3334 16C29.3334 8.63622 23.3638 2.66669 16 2.66669C8.63622 2.66669 2.66669 8.63622 2.66669 16C2.66669 23.3638 8.63622 29.3334 16 29.3334Z" fill="#7D7D7D"/>
<path fill-rule="evenodd" clip-rule="evenodd" d="M26.885 27.3333C26.4142 26.2932 25.5624 25.269 24.2812 24.3721C22.1679 22.8929 19.193 22 16 22C12.807 22 9.83209 22.8929 7.71885 24.3721C6.43762 25.269 5.5858 26.2932 5.11503 27.3333L26.885 27.3333ZM29.0237 27.3333C28.4818 25.6046 27.2439 24.0047 25.4281 22.7337C22.9276 20.9833 19.5362 20 16 20C12.4638 20 9.07242 20.9833 6.57193 22.7337C4.75617 24.0047 3.5182 25.6046 2.97636 27.3333C2.77203 27.9852 2.66669 28.6555 2.66669 29.3333L29.3334 29.3333C29.3334 28.6555 29.228 27.9852 29.0237 27.3333Z" fill="#7D7D7D"/>
<path fill-rule="evenodd" clip-rule="evenodd" d="M16 16.6667C17.841 16.6667 19.3334 15.1743 19.3334 13.3333C19.3334 11.4924 17.841 10 16 10C14.1591 10 12.6667 11.4924 12.6667 13.3333C12.6667 15.1743 14.1591 16.6667 16 16.6667ZM16 18.6667C18.9455 18.6667 21.3334 16.2789 21.3334 13.3333C21.3334 10.3878 18.9455 8 16 8C13.0545 8 10.6667 10.3878 10.6667 13.3333C10.6667 16.2789 13.0545 18.6667 16 18.6667Z" fill="#7D7D7D"/>
</g>
</svg>
