<svg width="30" height="30" viewBox="0 0 30 30" fill="none" xmlns="http://www.w3.org/2000/svg">
<path d="M14.0673 3.60664C14.4339 2.79779 15.5661 2.79779 15.9327 3.60664L18.7563 9.83713C18.903 10.1607 19.2023 10.3859 19.5499 10.4342L26.1112 11.3448C26.956 11.462 27.3 12.5131 26.6924 13.1204L21.8444 17.9659C21.6031 18.207 21.4945 18.5535 21.554 18.8919L22.764 25.7719C22.9165 26.6393 22.006 27.2956 21.2497 26.8635L15.5036 23.5798C15.1909 23.4011 14.8091 23.4011 14.4964 23.5798L8.75027 26.8635C7.99399 27.2956 7.0835 26.6393 7.23604 25.7719L8.44602 18.8919C8.50553 18.5535 8.39688 18.207 8.15559 17.9659L3.30758 13.1204C2.70001 12.5131 3.04404 11.462 3.88877 11.3448L10.4501 10.4342C10.7977 10.3859 11.097 10.1607 11.2437 9.83713L14.0673 3.60664Z" fill="#7D7D7D"/>
</svg>
