<svg width="129" height="128" viewBox="0 0 129 128" fill="none" xmlns="http://www.w3.org/2000/svg">
<path d="M42.9998 5.3335H5.6665V42.6668H42.9998V5.3335ZM37.6665 37.3335H10.9998V10.6668H37.6665V37.3335Z" fill="#23262F"/>
<path d="M82.9998 112H77.6665V122.667H123V117.333H82.9998V112Z" fill="#23262F"/>
<path d="M32.3333 16H16.3333V32H32.3333V16Z" fill="#23262F"/>
<path d="M5.6665 122.667H42.9998V85.3335H5.6665V122.667ZM10.9998 90.6668H37.6665V117.333H10.9998V90.6668Z" fill="#23262F"/>
<path d="M32.3333 96H16.3333V112H32.3333V96Z" fill="#23262F"/>
<path d="M85.6665 5.3335V42.6668H123V5.3335H85.6665ZM117.667 37.3335H90.9998V10.6668H117.667V37.3335Z" fill="#23262F"/>
<path d="M112.333 16H96.3333V32H112.333V16Z" fill="#23262F"/>
<path d="M123 48H112.333V58.6667H123V48Z" fill="#23262F"/>
<path d="M16.3332 69.3335H5.6665V80.0002H16.3332V69.3335Z" fill="#23262F"/>
<path d="M61.6666 48.0002H40.3333V53.3335H66.9999V42.6668V37.3335H72.3333V26.6668H66.9999H61.6666H56.3333V16.0002H61.6666V21.3335H80.3333V5.3335H74.9999V16.0002H66.9999V5.3335H64.3333H53.6666H50.9999V32.0002H61.6666V37.3335H50.9999V42.6668H61.6666V48.0002Z" fill="#23262F"/>
<path d="M13.6665 64H24.3332H29.6665H32.3332V69.3333H21.6665V74.6667H32.3332V80H53.6665V74.6667H37.6665V69.3333V58.6667H29.6665V50.6667H24.3332V58.6667H18.9998V48H5.6665V53.3333H13.6665V64Z" fill="#23262F"/>
<path d="M64.3333 112V98.6667H53.6666V88H48.3333V104H58.9999V112H48.3333V117.333H58.9999V122.667H72.3333V117.333H64.3333V112Z" fill="#23262F"/>
<path d="M90.9998 58.6668H80.3331V45.3335H74.9998V64.0002H101.666V58.6668H96.3331V53.3335H104.333V48.0002H96.3331H90.9998H85.6664V53.3335H90.9998V58.6668Z" fill="#23262F"/>
<path d="M85.6665 106.667H93.6665V112H104.333V106.667V101.334V93.3337H93.6665V101.334H85.6665V93.3337H80.3332V101.334H74.9998V80.0003H69.6665V74.667H64.3332V58.667H45.6665V69.3337H50.9998V64.0003H58.9998V74.667V85.3337H69.6665V101.334V106.667H74.9998H80.3332H85.6665Z" fill="#23262F"/>
<path d="M117.667 72H109.667H104.333H90.9999V82.6667H85.6666V72H80.3333V88H96.3333V77.3333H104.333V85.3333H109.667V77.3333H117.667V93.3333H109.667V109.333H123V104H115V98.6667H123V77.3333V72V64H117.667V72Z" fill="#23262F"/>
</svg>
