<svg width="60" height="60" viewBox="0 0 60 60" fill="none" xmlns="http://www.w3.org/2000/svg">
<g id="benefit-icon-wallet">
<g id="Wallet">
<path id="Fill 1" fill-rule="evenodd" clip-rule="evenodd" d="M54.9911 20.9378H44.4044C39.4778 20.9465 35.4867 24.8379 35.4778 29.6414C35.4711 34.4558 39.4667 38.3645 44.4044 38.371H55V39.1359C55 47.5339 49.9089 52.5 41.2933 52.5H18.7089C10.0911 52.5 5 47.5339 5 39.1359V20.8446C5 12.4466 10.0911 7.5 18.7089 7.5H41.2844C49.9 7.5 54.9911 12.4466 54.9911 20.8446V20.9378ZM16.8489 20.9183H30.9489H30.9578H30.9756C32.0311 20.914 32.8844 20.0755 32.88 19.0441C32.8756 18.015 32.0133 17.1829 30.9578 17.1873H16.8489C15.8 17.1916 14.9489 18.0215 14.9444 19.0463C14.94 20.0755 15.7933 20.914 16.8489 20.9183Z" fill="#00A569"/>
<path id="Fill 4" opacity="0.4" d="M40.0935 30.7417C40.6163 33.1196 42.7012 34.7927 45.0815 34.7492H53.2063C54.1967 34.7492 55 33.929 55 32.9151V26.5862C54.9979 25.5746 54.1967 24.7522 53.2063 24.75H44.8902C42.1826 24.7587 39.9958 27.0061 40 29.7757C40 30.0999 40.0319 30.424 40.0935 30.7417Z" fill="#40FFBA"/>
<circle id="Oval" cx="45" cy="29.75" r="2.5" fill="#00A569"/>
</g>
</g>
</svg>
