<svg width="60" height="60" viewBox="0 0 60 60" fill="none" xmlns="http://www.w3.org/2000/svg">
<g id="benefit-icon-nft">
<g id="Image 2">
<path id="Fill 1" d="M54.9998 36.7559V40.2147C54.9998 40.7887 54.9748 41.3677 54.9247 41.9416C54.2232 49.8393 48.7373 55 40.8214 55H19.1782C15.1701 55 11.7884 53.6992 9.35852 51.3407C8.40662 50.4659 7.60501 49.4383 6.97876 48.2603C7.80541 47.2552 8.73227 46.1549 9.63407 45.0521C11.1621 43.2224 12.6401 41.4153 13.5669 40.2398C14.9447 38.5354 18.577 34.049 23.612 36.1544C24.6391 36.5804 25.5409 37.182 26.3675 37.7083C28.3966 39.0618 29.2483 39.4628 30.6762 38.6858C32.2543 37.8336 33.2814 36.1544 34.3585 34.3999C34.9347 33.47 35.5108 32.5702 36.1371 31.7431C38.8675 28.184 43.076 27.2316 46.583 29.3369C48.3365 30.3896 49.8395 31.718 51.2423 33.069C51.5429 33.3697 51.8435 33.648 52.119 33.9237C52.4948 34.2996 53.7473 35.5528 54.9998 36.7559Z" fill="#00A569"/>
<path id="Fill 3" opacity="0.4" d="M40.8467 5H19.1784C10.6864 5 5 10.9402 5 19.7853V40.215C5 43.2953 5.7014 46.0298 6.97896 48.2605C7.80561 47.2555 8.73247 46.1552 9.63427 45.0498C11.1623 43.2227 12.6403 41.4155 13.5671 40.24C14.9449 38.5357 18.5772 34.0492 23.6122 36.1546C24.6393 36.5807 25.5411 37.1822 26.3677 37.7086C28.3968 39.062 29.2485 39.4631 30.6764 38.6836C32.2545 37.8339 33.2816 36.1546 34.3587 34.3976C34.9349 33.4702 35.511 32.5704 36.1373 31.7433C38.8677 28.1842 43.0762 27.2318 46.5832 29.3372C48.3367 30.3899 49.8397 31.7183 51.2425 33.0692C51.5431 33.37 51.8437 33.6482 52.1192 33.9239C52.495 34.2974 53.7475 35.5506 55 36.7561V19.7853C55 10.9402 49.3136 5 40.8467 5Z" fill="#40FFBA"/>
<path id="Fill 5" d="M28.636 21.9916C28.636 25.5131 25.7026 28.4456 22.1831 28.4456C18.666 28.4456 15.7327 25.5131 15.7327 21.9916C15.7327 18.4727 18.666 15.5377 22.1831 15.5377C25.7026 15.5377 28.636 18.4727 28.636 21.9916Z" fill="#00A569"/>
</g>
</g>
</svg>
