<svg width="60" height="60" viewBox="0 0 60 60" fill="none" xmlns="http://www.w3.org/2000/svg">
<g id="benefit-icon-collection">
<g id="Category">
<path id="Fill 1" opacity="0.4" d="M40.1887 5H48.6536C52.1593 5 54.9999 7.86463 54.9999 11.3999V19.9363C54.9999 23.4716 52.1593 26.3362 48.6536 26.3362H40.1887C36.683 26.3362 33.8424 23.4716 33.8424 19.9363V11.3999C33.8424 7.86463 36.683 5 40.1887 5Z" fill="#40FFBA"/>
<path id="Fill 4" d="M11.3463 5H19.8112C23.3169 5 26.1575 7.86463 26.1575 11.3999V19.9363C26.1575 23.4716 23.3169 26.3362 19.8112 26.3362H11.3463C7.84064 26.3362 5 23.4716 5 19.9363V11.3999C5 7.86463 7.84064 5 11.3463 5Z" fill="#00A569"/>
<path id="Fill 7" d="M11.3463 33.6638H19.8112C23.3169 33.6638 26.1575 36.5284 26.1575 40.0637V48.6001C26.1575 52.133 23.3169 55 19.8112 55H11.3463C7.84064 55 5 52.133 5 48.6001V40.0637C5 36.5284 7.84064 33.6638 11.3463 33.6638Z" fill="#00A569"/>
<path id="Fill 10" d="M40.1887 33.6638H48.6536C52.1593 33.6638 54.9999 36.5284 54.9999 40.0637V48.6001C54.9999 52.133 52.1593 55 48.6536 55H40.1887C36.683 55 33.8424 52.133 33.8424 48.6001V40.0637C33.8424 36.5284 36.683 33.6638 40.1887 33.6638Z" fill="#00A569"/>
</g>
</g>
</svg>
