<svg width="58" height="58" viewBox="0 0 58 58" fill="none" xmlns="http://www.w3.org/2000/svg">
<path fill-rule="evenodd" clip-rule="evenodd" d="M28.8818 5.14323C27.9403 5.63144 8.84664 16.4072 8.58484 16.5982C7.96591 17.0495 8.00035 16.3186 8.00035 29C8.00035 41.2712 7.98741 40.9084 8.43909 41.3041C8.6148 41.4581 27.8744 52.3408 28.7597 52.7864C29.3257 53.0712 29.6746 53.0712 30.2406 52.7864C31.1259 52.3408 50.3855 41.4581 50.5612 41.3041C51.0129 40.9084 51 41.2712 51 29C51 16.7288 51.0129 17.0915 50.5612 16.6958C50.3855 16.5418 31.1259 5.65911 30.2406 5.21357C29.725 4.95413 29.29 4.93152 28.8818 5.14323ZM38.1294 12.8779C42.8099 15.515 46.6038 17.7053 46.5603 17.7452C46.4192 17.8746 29.7431 27.2453 29.5765 27.2887C29.3938 27.3365 12.329 17.76 12.4257 17.6638C12.5721 17.5182 29.3709 8.08829 29.4884 8.08585C29.5604 8.08426 33.4488 10.2407 38.1294 12.8779ZM19.5195 24.9901L28.0664 29.7972L28.0698 39.4912L28.0732 49.1851L27.764 49.0067C27.594 48.9086 23.7197 46.7248 19.1546 44.1539L10.8543 39.4793V29.8312C10.8543 24.5247 10.8809 20.183 10.9135 20.183C10.946 20.183 14.8187 22.3462 19.5195 24.9901ZM48.146 29.8312V39.4793L39.8457 44.1539C35.2806 46.7248 31.4064 48.9086 31.2363 49.0067L30.9271 49.1851L30.9306 39.4912L30.9339 29.7972L39.4686 24.993C44.1627 22.3507 48.0354 20.1875 48.0747 20.1859C48.1139 20.1843 48.146 24.5247 48.146 29.8312Z" fill="#00A569"/>
</svg>
