<svg width="58" height="58" viewBox="0 0 58 58" fill="none" xmlns="http://www.w3.org/2000/svg">
<path fill-rule="evenodd" clip-rule="evenodd" d="M28.9287 7.13829C28.6166 7.30508 7.83505 20.3188 7.55529 20.5225C7.27413 20.7273 6.99991 21.2582 7.00035 21.5973C7.0007 21.9245 7.2751 22.4366 7.55942 22.6405C7.6605 22.713 8.71308 23.3779 9.89846 24.118C11.0838 24.8581 12.0636 25.4912 12.0756 25.5248C12.0876 25.5583 11.2768 26.0977 10.2738 26.7232C7.43102 28.4962 7.31632 28.5771 7.15003 28.9259C6.94885 29.3479 6.9615 29.7419 7.18809 30.1139C7.41924 30.4933 7.29558 30.4059 9.89846 32.031C11.0838 32.7712 12.0636 33.4042 12.0756 33.4378C12.0876 33.4714 11.2768 34.0107 10.2738 34.6363C7.43102 36.4092 7.31632 36.4901 7.15003 36.8389C7.0675 37.012 7 37.2755 7 37.4245C7 37.742 7.28213 38.2754 7.55529 38.4744C7.88427 38.7139 28.6493 51.7102 28.9463 51.8625C29.3042 52.0458 29.6958 52.0458 30.0537 51.8625C30.3507 51.7102 51.1157 38.7139 51.4447 38.4744C51.7179 38.2754 52 37.742 52 37.4245C52 37.2755 51.9325 37.012 51.85 36.8389C51.6837 36.4901 51.569 36.4092 48.7262 34.6363C47.7232 34.0107 46.9124 33.4714 46.9244 33.4378C46.9364 33.4042 47.9162 32.7712 49.1015 32.031C51.7044 30.4059 51.5808 30.4933 51.8119 30.1139C52.0385 29.7419 52.0512 29.3479 51.85 28.9259C51.6837 28.5771 51.569 28.4962 48.7262 26.7232C47.7232 26.0977 46.9124 25.5583 46.9244 25.5248C46.9364 25.4912 47.9162 24.8581 49.1015 24.118C50.2869 23.3779 51.3395 22.713 51.4406 22.6405C51.7249 22.4366 51.9993 21.9245 51.9996 21.5973C52.0001 21.2582 51.7259 20.7273 51.4447 20.5225C51.1157 20.2829 30.3507 7.28661 30.0537 7.13433C29.7014 6.95383 29.2709 6.95532 28.9287 7.13829ZM38.9007 15.7566C43.9779 18.9382 48.1314 21.5612 48.1308 21.5854C48.1289 21.6684 29.6318 33.1401 29.5 33.1401C29.3682 33.1401 10.8712 21.6684 10.8691 21.5854C10.8667 21.488 29.4638 9.89422 29.5628 9.9315C29.6215 9.95357 33.8235 12.5749 38.9007 15.7566ZM21.6472 31.4411C25.4587 33.8152 28.7239 35.8331 28.9032 35.9251C29.3522 36.1557 29.7303 36.1327 30.2471 35.8435C30.4888 35.7083 33.6924 33.7247 37.3662 31.4356C41.04 29.1466 44.1104 27.2334 44.1892 27.1845C44.3027 27.1139 44.7301 27.3416 46.2327 28.2732C47.2778 28.9211 48.132 29.4718 48.1311 29.4968C48.1277 29.5814 29.6331 41.053 29.5 41.053C29.3672 41.053 10.8723 29.5815 10.8689 29.4971C10.8669 29.4459 14.5709 27.1298 14.6599 27.1266C14.6915 27.1255 17.8358 29.067 21.6472 31.4411ZM21.6472 39.3541C25.4587 41.7283 28.7239 43.7461 28.9032 43.8382C29.3522 44.0688 29.7303 44.0457 30.2471 43.7566C30.4888 43.6213 33.6924 41.6377 37.3662 39.3487C41.04 37.0596 44.1108 35.1463 44.1902 35.0969C44.3048 35.0256 44.7248 35.2499 46.2324 36.1873C47.2762 36.8364 48.1307 37.3873 48.1312 37.4115C48.1331 37.4933 29.6328 49.0526 29.5 49.0526C29.3671 49.0526 10.8668 37.4932 10.8689 37.4115C10.8701 37.36 14.575 35.0416 14.6599 35.0392C14.6915 35.0383 17.8358 36.98 21.6472 39.3541Z" fill="#00A569"/>
</svg>
