<svg width="58" height="58" viewBox="0 0 58 58" fill="none" xmlns="http://www.w3.org/2000/svg">
<g clip-path="url(#clip0_56_1858)">
<rect width="58" height="58" fill="#DFFFE6"/>
<g filter="url(#filter0_f_56_1858)">
<path d="M7.87927 66.0981L28.8906 76.6038L49.9019 66.0981L28.8906 55.5925L7.87927 66.0981Z" fill="black" fill-opacity="0.3"/>
</g>
<path d="M7.87927 58.2189L28.8906 68.7245L49.9019 58.2189L28.8906 47.7132L7.87927 58.2189Z" fill="#00C880"/>
<g filter="url(#filter1_f_56_1858)">
<path d="M7.87927 56.9057L28.8906 67.4113L49.9019 56.9057L28.8906 46.4L7.87927 56.9057Z" fill="black" fill-opacity="0.3"/>
</g>
<path d="M7.87927 54.2792V49.0264L28.8906 59.5321V64.7849L7.87927 54.2792Z" fill="#02B876"/>
<path d="M49.9019 54.2792V49.0264L28.8906 59.5321V64.7849L49.9019 54.2792Z" fill="#00A569"/>
<path d="M7.87927 49.0264L28.8906 59.5321L49.9019 49.0264L28.8906 38.5208L7.87927 49.0264Z" fill="#00C880"/>
<g filter="url(#filter2_f_56_1858)">
<path d="M7.87927 47.7132L28.8906 58.2189L49.9019 47.7132L28.8906 37.2076L7.87927 47.7132Z" fill="black" fill-opacity="0.3"/>
</g>
<path d="M7.87927 45.0868V39.834L28.8906 50.3396V55.5925L7.87927 45.0868Z" fill="#02B876"/>
<path d="M49.9019 45.0868V39.834L28.8906 50.3396V55.5925L49.9019 45.0868Z" fill="#00A569"/>
<path d="M7.87927 39.834L28.8906 50.3396L49.9019 39.834L28.8906 29.3283L7.87927 39.834Z" fill="#00C880"/>
<g filter="url(#filter3_f_56_1858)">
<path d="M7.87927 38.5207L28.8906 49.0264L49.9019 38.5207L28.8906 28.0151L7.87927 38.5207Z" fill="black" fill-opacity="0.3"/>
</g>
<path d="M7.87927 35.8943V30.6415L28.8906 41.1471V46.4L7.87927 35.8943Z" fill="#02B876"/>
<path d="M49.9019 35.8943V30.6415L28.8906 41.1471V46.4L49.9019 35.8943Z" fill="#00A569"/>
<path d="M7.87927 30.6415L28.8906 41.1472L49.9019 30.6415L28.8906 20.1358L7.87927 30.6415Z" fill="#00C880"/>
<g filter="url(#filter4_f_56_1858)">
<path d="M7.87927 29.3283L28.8906 39.834L49.9019 29.3283L28.8906 18.8226L7.87927 29.3283Z" fill="black" fill-opacity="0.3"/>
</g>
<path d="M7.87927 26.7019V21.449L28.8906 31.9547V37.2075L7.87927 26.7019Z" fill="#02B876"/>
<path d="M49.9019 26.7019V21.449L28.8906 31.9547V37.2075L49.9019 26.7019Z" fill="#00A569"/>
<path d="M7.87927 21.4491L28.8906 31.9547L49.9019 21.4491L28.8906 10.9434L7.87927 21.4491Z" fill="#00C880"/>
</g>
<defs>
<filter id="filter0_f_56_1858" x="-106.121" y="-58.4075" width="270.023" height="249.011" filterUnits="userSpaceOnUse" color-interpolation-filters="sRGB">
<feFlood flood-opacity="0" result="BackgroundImageFix"/>
<feBlend mode="normal" in="SourceGraphic" in2="BackgroundImageFix" result="shape"/>
<feGaussianBlur stdDeviation="57" result="effect1_foregroundBlur_56_1858"/>
</filter>
<filter id="filter1_f_56_1858" x="-106.121" y="-67.6" width="270.023" height="249.011" filterUnits="userSpaceOnUse" color-interpolation-filters="sRGB">
<feFlood flood-opacity="0" result="BackgroundImageFix"/>
<feBlend mode="normal" in="SourceGraphic" in2="BackgroundImageFix" result="shape"/>
<feGaussianBlur stdDeviation="57" result="effect1_foregroundBlur_56_1858"/>
</filter>
<filter id="filter2_f_56_1858" x="-106.121" y="-76.7924" width="270.023" height="249.011" filterUnits="userSpaceOnUse" color-interpolation-filters="sRGB">
<feFlood flood-opacity="0" result="BackgroundImageFix"/>
<feBlend mode="normal" in="SourceGraphic" in2="BackgroundImageFix" result="shape"/>
<feGaussianBlur stdDeviation="57" result="effect1_foregroundBlur_56_1858"/>
</filter>
<filter id="filter3_f_56_1858" x="-106.121" y="-85.9849" width="270.023" height="249.011" filterUnits="userSpaceOnUse" color-interpolation-filters="sRGB">
<feFlood flood-opacity="0" result="BackgroundImageFix"/>
<feBlend mode="normal" in="SourceGraphic" in2="BackgroundImageFix" result="shape"/>
<feGaussianBlur stdDeviation="57" result="effect1_foregroundBlur_56_1858"/>
</filter>
<filter id="filter4_f_56_1858" x="-106.121" y="-95.1774" width="270.023" height="249.011" filterUnits="userSpaceOnUse" color-interpolation-filters="sRGB">
<feFlood flood-opacity="0" result="BackgroundImageFix"/>
<feBlend mode="normal" in="SourceGraphic" in2="BackgroundImageFix" result="shape"/>
<feGaussianBlur stdDeviation="57" result="effect1_foregroundBlur_56_1858"/>
</filter>
<clipPath id="clip0_56_1858">
<rect width="58" height="58" fill="white"/>
</clipPath>
</defs>
</svg>
