<svg width="203" height="62" viewBox="0 0 203 62" fill="none" xmlns="http://www.w3.org/2000/svg">
<circle cx="30.9661" cy="31" r="27.5254" fill="#00A569"/>
<path fill-rule="evenodd" clip-rule="evenodd" d="M16.4575 24.2599C16.3943 24.9703 16.9043 25.6598 17.804 26.0802C18.496 26.4036 18.9806 26.2839 19.3828 25.6902C19.7823 25.1005 19.6362 24.4619 18.9591 23.8382C18.025 22.9778 17.1037 22.9438 16.6454 23.753C16.5522 23.9175 16.4677 24.1455 16.4575 24.2599ZM22.3483 17.2431C22.3461 17.52 22.4318 17.8742 22.6339 18.4238C23.1031 19.6995 23.7929 20.8407 25.1698 22.6194C27.0902 25.1002 27.5259 26.1109 27.0823 27.0564C26.9057 27.4328 26.7029 27.5816 26.2689 27.6537C25.8902 27.7165 25.5989 27.6558 24.8909 27.3663C24.2631 27.1097 24.2403 27.0943 23.636 26.5183C22.8345 25.7545 22.4228 25.5621 21.8108 25.6657C20.938 25.8133 20.7348 26.847 21.4363 27.5704C21.5772 27.7156 21.9216 27.9789 22.2017 28.1554C22.7557 28.5047 23.1098 28.6365 24.5815 29.0419C25.294 29.2381 25.4426 29.2982 25.7048 29.4965C26.8396 30.3545 26.6755 32.1494 25.3461 33.422C24.3115 34.4125 22.8899 34.9041 20.5326 35.0867C18.4889 35.2449 18.1638 35.3189 17.693 35.7322C17.0808 36.2697 17.1713 37.2142 17.9029 37.9222C18.3113 38.3175 18.7125 38.443 19.5481 38.4369C20.7893 38.4278 22.1316 37.7622 24.7325 35.8662C26.4461 34.617 26.6789 34.4675 27.1255 34.3292C27.5649 34.1932 27.8755 34.201 28.2065 34.3562C28.641 34.5601 28.6998 35.0439 28.4091 36.0234C28.264 36.5116 27.8068 37.3575 26.9959 38.6373C26.7997 38.947 26.4674 39.9492 26.396 40.4464C26.2737 41.2995 26.5129 41.8641 27.1153 42.1437C27.979 42.5445 28.9666 42.0541 29.58 40.9197C30.0323 40.0834 30.1093 39.4238 29.9275 37.9428C29.762 36.5955 29.8243 35.9387 30.1759 35.3215C30.8441 34.1487 31.9306 34.3428 32.854 35.8C33.3692 36.6129 33.6571 37.836 33.6159 39.0364C33.604 39.3812 33.5378 40.1728 33.4687 40.7954C33.3153 42.1772 33.3242 43.3571 33.4932 44.0362C33.6346 44.6042 34.0002 45.2744 34.2785 45.4758C34.6877 45.7718 35.5113 45.5311 35.977 44.9792C36.4335 44.4382 36.7015 43.3322 36.7038 41.9797C36.7061 40.5984 36.4465 39.715 35.5346 38.0018C34.6202 36.2839 34.3519 35.3249 34.6179 34.7248C34.9499 33.9757 35.8678 34.3518 37.3345 35.8378C37.5605 36.0668 38.2189 36.7944 38.7975 37.4546C40.1346 38.9803 40.5872 39.4276 41.2256 39.8547C42.4299 40.6603 44.1382 40.8955 44.9619 40.3691C46.0145 39.6963 46.2956 38.2434 45.6188 36.9748C45.262 36.306 44.7847 35.8006 43.969 35.2276C42.7986 34.4055 41.5833 33.9059 39.8177 33.5209C38.2531 33.1798 37.8311 33.0461 36.7706 32.5552C35.9331 32.1675 35.8112 32.0947 35.6285 31.8729C35.0408 31.1594 35.335 30.4901 36.4055 30.1056C37.608 29.6736 39.3047 29.5265 41.6861 29.6478C42.2528 29.6767 42.8447 29.6717 43.0014 29.6369C43.3108 29.5682 43.6325 29.3182 43.8798 28.9544C44.0795 28.6607 44.0641 28.2433 43.8391 27.8512C43.6995 27.6079 43.6312 27.5542 43.2098 27.3571C42.7846 27.1582 42.6829 27.1371 42.1968 27.1474C41.4447 27.1634 40.573 27.3548 39.3449 27.7738C37.7225 28.3273 36.5479 28.4481 35.866 28.1316C35.4208 27.9249 35.2215 27.6917 35.1474 27.2907C35.0588 26.8103 35.1114 26.5247 35.4045 25.8957C35.9459 24.734 37.1401 23.4458 38.998 22.0194C39.9439 21.2931 40.2682 20.9522 40.5383 20.4005C40.7361 19.996 40.7673 19.8735 40.7628 19.5182C40.7526 18.7289 40.3676 18.2256 39.5001 17.8671C38.906 17.6217 38.4458 17.6323 37.9953 17.9019C37.4246 18.2436 37.439 18.2191 35.9888 21.2975C35.2536 22.8581 34.5552 24.2845 34.4369 24.4672C34.0677 25.037 33.8254 25.1542 33.2692 25.0317C32.8245 24.9338 32.603 24.7117 32.4231 24.183C32.1468 23.3712 32.2545 22.246 32.7778 20.4766C33.0854 19.4367 33.1479 19.1272 33.1402 18.6823C33.1185 17.4316 32.303 16.7783 31.4264 17.3093C30.6298 17.7918 30.4158 18.6312 30.5869 20.6035C30.6925 21.8199 30.57 22.8585 30.2159 23.7499C30.028 24.223 29.9904 24.279 29.7745 24.4078C29.448 24.6028 29.2357 24.5998 28.8615 24.3949C27.9963 23.9213 27.1432 22.2933 26.2217 19.3575C25.7245 17.7732 25.4854 17.2485 24.9718 16.6144C24.7021 16.2815 24.5757 16.1769 24.2691 16.033C23.2581 15.5587 22.3572 16.1262 22.3483 17.2431ZM24.3161 45.4876C24.1488 46.0747 24.2454 46.7568 24.5545 47.1705C24.8085 47.5106 25.4332 47.8026 25.8597 47.7806C26.2749 47.7591 26.6578 47.6011 27.0117 47.3053C27.2761 47.0843 27.3316 46.9999 27.5394 46.5022C27.9305 45.5655 27.8387 44.9895 27.214 44.4614C26.2089 43.6116 25.2363 43.7997 24.5391 44.9787C24.4563 45.1185 24.356 45.3476 24.3161 45.4876ZM46.058 27.1128C46.1337 27.8411 46.9612 28.4833 47.9834 28.6071C49.1556 28.749 50.2132 27.8537 50.1716 26.7546C50.142 25.9717 49.5211 25.5079 48.4112 25.4396C47.9361 25.4104 47.7337 25.4387 47.3065 25.5944C46.9378 25.7288 46.7143 25.8575 46.549 26.0307C46.2326 26.3622 46.027 26.8153 46.058 27.1128Z" fill="white"/>
<path d="M70.878 43.807V16.0614H81.0646C83.9977 16.0614 86.5344 16.6559 88.6748 17.845C90.8416 19.0341 92.5195 20.6725 93.7086 22.76C94.9242 24.8475 95.5319 27.2389 95.5319 29.9342C95.5319 32.6295 94.9242 35.0209 93.7086 37.1084C92.5195 39.196 90.8416 40.8343 88.6748 42.0234C86.5344 43.2125 83.9977 43.807 81.0646 43.807H70.878ZM77.5369 38.2579H80.906C82.4386 38.2579 83.7995 37.9276 84.9886 37.267C86.2041 36.5799 87.1554 35.6155 87.8424 34.3735C88.5295 33.1316 88.873 31.6518 88.873 29.9342C88.873 28.2166 88.5295 26.7369 87.8424 25.4949C87.1554 24.253 86.2041 23.3017 84.9886 22.6411C83.7995 21.954 82.4386 21.6105 80.906 21.6105H77.5369V38.2579Z" fill="#222222"/>
<path d="M102.03 51.8532V46.5816H112.177C112.573 46.5816 112.903 46.4495 113.168 46.1852C113.432 45.9474 113.564 45.6435 113.564 45.2736V40.7946H113.445C112.917 41.4024 112.349 41.9177 111.741 42.3405C111.159 42.7633 110.499 43.0803 109.759 43.2917C109.046 43.5031 108.24 43.6088 107.341 43.6088C105.544 43.6088 103.932 43.186 102.505 42.3405C101.105 41.4685 99.9952 40.2661 99.176 38.7335C98.3833 37.2009 97.9869 35.4569 97.9869 33.5015C97.9869 31.5725 98.3965 29.8153 99.2157 28.2298C100.061 26.6444 101.29 25.376 102.902 24.4247C104.514 23.4734 106.482 22.9978 108.808 22.9978C111.027 22.9978 112.943 23.4602 114.555 24.3851C116.193 25.2835 117.462 26.5651 118.36 28.2298C119.259 29.8681 119.708 31.7971 119.708 34.0168V45.9078C119.708 47.731 119.166 49.1712 118.083 50.2281C117.026 51.3116 115.559 51.8532 113.683 51.8532H102.03ZM108.847 38.4561C109.799 38.4561 110.618 38.2447 111.305 37.8219C111.992 37.3727 112.52 36.7781 112.89 36.0382C113.26 35.2984 113.445 34.4792 113.445 33.5808C113.445 32.6295 113.26 31.7575 112.89 30.9648C112.52 30.172 111.992 29.5511 111.305 29.1018C110.618 28.6262 109.799 28.3884 108.847 28.3884C107.923 28.3884 107.103 28.613 106.39 29.0622C105.703 29.5114 105.174 30.1192 104.804 30.8855C104.434 31.6518 104.25 32.5106 104.25 33.4619C104.25 34.3867 104.434 35.2323 104.804 35.9986C105.174 36.7385 105.703 37.333 106.39 37.7823C107.103 38.2315 107.923 38.4561 108.847 38.4561Z" fill="#222222"/>
<path d="M131.589 43.807C129.712 43.807 128.246 43.2785 127.189 42.2216C126.132 41.1382 125.603 39.6848 125.603 37.8615V18.5189H131.787V37.5048C131.787 37.8219 131.892 38.0993 132.104 38.3372C132.342 38.5486 132.619 38.6543 132.936 38.6543H137.375V43.807H131.589ZM122.274 28.5073V23.4734H137.375V28.5073H122.274Z" fill="#222222"/>
<path d="M138.831 43.807L147.828 19.272C148.277 18.0564 149.017 17.1448 150.048 16.537C151.078 15.9028 152.241 15.5858 153.536 15.5858C154.831 15.5858 155.993 15.8896 157.024 16.4974C158.054 17.0787 158.794 17.9904 159.243 19.2323L168.281 43.807H161.106L159.362 38.4561H147.59L145.767 43.807H138.831ZM149.295 32.9466H157.658L154.13 21.888C154.077 21.7294 153.998 21.6237 153.893 21.5709C153.813 21.4916 153.708 21.452 153.575 21.452C153.443 21.452 153.324 21.4916 153.219 21.5709C153.139 21.6502 153.087 21.7559 153.06 21.888L149.295 32.9466Z" fill="#222222"/>
<path d="M170.427 43.807V29.4586C170.427 27.6089 170.956 26.1555 172.013 25.0985C173.07 24.0416 174.536 23.5131 176.413 23.5131H182.318V28.5073H177.919C177.549 28.5073 177.232 28.6394 176.968 28.9037C176.703 29.1415 176.571 29.4586 176.571 29.8549V43.807H170.427Z" fill="#222222"/>
<path d="M193.289 43.807C191.412 43.807 189.946 43.2785 188.889 42.2216C187.832 41.1382 187.303 39.6848 187.303 37.8615V18.5189H193.487V37.5048C193.487 37.8219 193.592 38.0993 193.804 38.3372C194.042 38.5486 194.319 38.6543 194.636 38.6543H199.075V43.807H193.289ZM183.974 28.5073V23.4734H199.075V28.5073H183.974Z" fill="#222222"/>
</svg>
