<svg width="30" height="30" viewBox="0 0 30 30" fill="none" xmlns="http://www.w3.org/2000/svg">
<path fill-rule="evenodd" clip-rule="evenodd" d="M4.40774 4.60824C5.6671 3.25715 7.46113 2.50012 9.58149 2.50012H20.4177C22.5431 2.50012 24.3379 3.25674 25.5967 4.6086C26.8484 5.9529 27.5002 7.80963 27.5002 9.89512V20.1051C27.5002 22.1906 26.8484 24.0474 25.5965 25.3917C24.3375 26.7436 22.5424 27.5001 20.4165 27.5001H9.58149C7.45556 27.5001 5.66096 26.7435 4.40258 25.3915C3.1513 24.0471 2.50024 22.1904 2.50024 20.1051V9.89512C2.50024 7.80859 3.1552 5.95203 4.40774 4.60824ZM5.77931 5.88669C4.90404 6.82572 4.37524 8.19791 4.37524 9.89512V20.1051C4.37524 21.8036 4.90169 23.1757 5.77509 24.1141C6.6414 25.0448 7.91868 25.6251 9.58149 25.6251H20.4165C22.0793 25.6251 23.3574 25.0448 24.2243 24.1139C25.0983 23.1754 25.6252 21.8034 25.6252 20.1051V9.89512C25.6252 8.19687 25.0983 6.82484 24.2244 5.88634C23.3576 4.95537 22.0799 4.37512 20.4177 4.37512H9.58149C7.92561 4.37512 6.64776 4.95497 5.77931 5.88669Z" fill="#222222"/>
<path fill-rule="evenodd" clip-rule="evenodd" d="M18.6742 15.0162C18.6742 14.3259 19.2338 13.7662 19.9242 13.7662H19.9354C20.6258 13.7662 21.1854 14.3259 21.1854 15.0162C21.1854 15.7066 20.6258 16.2662 19.9354 16.2662H19.9242C19.2338 16.2662 18.6742 15.7066 18.6742 15.0162Z" fill="#222222"/>
<path fill-rule="evenodd" clip-rule="evenodd" d="M13.663 15.0162C13.663 14.3259 14.2226 13.7662 14.913 13.7662H14.9242C15.6146 13.7662 16.1742 14.3259 16.1742 15.0162C16.1742 15.7066 15.6146 16.2662 14.9242 16.2662H14.913C14.2226 16.2662 13.663 15.7066 13.663 15.0162Z" fill="#222222"/>
<path fill-rule="evenodd" clip-rule="evenodd" d="M8.65173 15.0162C8.65173 14.3259 9.21138 13.7662 9.90173 13.7662H9.91298C10.6033 13.7662 11.163 14.3259 11.163 15.0162C11.163 15.7066 10.6033 16.2662 9.91298 16.2662H9.90173C9.21138 16.2662 8.65173 15.7066 8.65173 15.0162Z" fill="#222222"/>
</svg>
