<svg width="30" height="30" viewBox="0 0 30 30" fill="none" xmlns="http://www.w3.org/2000/svg">
<path fill-rule="evenodd" clip-rule="evenodd" d="M7.66667 4H22.3333C24.3584 4 26 5.64162 26 7.66667V22.3333C26 24.3584 24.3584 26 22.3333 26H7.66667C5.64162 26 4 24.3584 4 22.3333V7.66667C4 5.64162 5.64162 4 7.66667 4ZM7.66667 5.83333C6.65414 5.83333 5.83333 6.65415 5.83333 7.66667V14.0833H14.0833V5.83333H7.66667ZM14.0833 15.9167H5.83333L5.83333 22.3333C5.83333 23.3459 6.65415 24.1667 7.66667 24.1667H14.0833V15.9167ZM15.9167 15.9167H24.1667V22.3333C24.1667 23.3459 23.3459 24.1667 22.3333 24.1667H15.9167V15.9167ZM24.1667 14.0833H15.9167V5.83333H22.3333C23.3459 5.83333 24.1667 6.65414 24.1667 7.66667V14.0833Z" fill="#7D7D7D"/>
</svg>
