<svg width="30" height="30" viewBox="0 0 30 30" fill="none" xmlns="http://www.w3.org/2000/svg">
<path fill-rule="evenodd" clip-rule="evenodd" d="M7.66667 4H22.3333C24.3584 4 26 5.64162 26 7.66667V22.3333C26 24.3584 24.3584 26 22.3333 26H7.66667C5.64162 26 4 24.3584 4 22.3333V7.66667C4 5.64162 5.64162 4 7.66667 4ZM7.66667 5.83333C6.65414 5.83333 5.83333 6.65415 5.83333 7.66667V10.4167L10.4167 10.4167V5.83333H7.66667ZM5.83333 17.75L5.83333 12.25H10.4167V17.75H5.83333ZM5.83333 19.5833L5.83333 22.3333C5.83333 23.3459 6.65415 24.1667 7.66667 24.1667H10.4167V19.5833H5.83333ZM12.25 19.5833V24.1667H17.75V19.5833H12.25ZM19.5833 19.5833V24.1667H22.3333C23.3459 24.1667 24.1667 23.3459 24.1667 22.3333V19.5833H19.5833ZM24.1667 17.75H19.5833V12.25H24.1667V17.75ZM17.75 17.75L12.25 17.75V12.25L17.75 12.25V17.75ZM19.5833 10.4167H24.1667V7.66667C24.1667 6.65414 23.3459 5.83333 22.3333 5.83333H19.5833V10.4167ZM12.25 10.4167H17.75V5.83333H12.25V10.4167Z" fill="#7D7D7D"/>
</svg>
