<svg width="96" height="91" viewBox="0 0 96 91" fill="none" xmlns="http://www.w3.org/2000/svg">
<path fill-rule="evenodd" clip-rule="evenodd" d="M20.8818 43.1432C19.9403 43.6314 0.846639 54.4072 0.584836 54.5982C-0.0340923 55.0495 0.000345328 54.3186 0.000345328 67C0.000345328 79.2712 -0.0125927 78.9084 0.439094 79.3041C0.614802 79.4581 19.8744 90.3408 20.7597 90.7864C21.3257 91.0712 21.6746 91.0712 22.2406 90.7864C23.1259 90.3408 42.3855 79.4581 42.5612 79.3041C43.0129 78.9084 43 79.2712 43 67C43 54.7288 43.0129 55.0915 42.5612 54.6958C42.3855 54.5418 23.1259 43.6591 22.2406 43.2136C21.725 42.9541 21.29 42.9315 20.8818 43.1432ZM30.1294 50.8779C34.8099 53.515 38.6038 55.7053 38.5603 55.7452C38.4192 55.8746 21.7431 65.2453 21.5765 65.2887C21.3938 65.3365 4.32904 55.76 4.42569 55.6638C4.5721 55.5182 21.3709 46.0883 21.4884 46.0859C21.5604 46.0843 25.4488 48.2407 30.1294 50.8779ZM11.5195 62.9901L20.0664 67.7972L20.0698 77.4912L20.0732 87.1851L19.764 87.0067C19.594 86.9086 15.7197 84.7248 11.1546 82.1539L2.8543 77.4793V67.8312C2.8543 62.5247 2.88094 58.183 2.91347 58.183C2.94601 58.183 6.81873 60.3462 11.5195 62.9901ZM40.146 67.8312V77.4793L31.8457 82.1539C27.2806 84.7248 23.4064 86.9086 23.2363 87.0067L22.9271 87.1851L22.9306 77.4912L22.9339 67.7972L31.4686 62.993C36.1627 60.3507 40.0354 58.1875 40.0747 58.1859C40.1139 58.1843 40.146 62.5247 40.146 67.8312Z" fill="#00A569"/>
<path fill-rule="evenodd" clip-rule="evenodd" d="M73.8818 43.1432C72.9403 43.6314 53.8466 54.4072 53.5848 54.5982C52.9659 55.0495 53.0003 54.3186 53.0003 67C53.0003 79.2712 52.9874 78.9084 53.4391 79.3041C53.6148 79.4581 72.8744 90.3408 73.7597 90.7864C74.3257 91.0712 74.6746 91.0712 75.2406 90.7864C76.1259 90.3408 95.3855 79.4581 95.5612 79.3041C96.0129 78.9084 96 79.2712 96 67C96 54.7288 96.0129 55.0915 95.5612 54.6958C95.3855 54.5418 76.1259 43.6591 75.2406 43.2136C74.725 42.9541 74.29 42.9315 73.8818 43.1432ZM83.1294 50.8779C87.8099 53.515 91.6038 55.7053 91.5603 55.7452C91.4192 55.8746 74.7431 65.2453 74.5765 65.2887C74.3938 65.3365 57.329 55.76 57.4257 55.6638C57.5721 55.5182 74.3709 46.0883 74.4884 46.0859C74.5604 46.0843 78.4488 48.2407 83.1294 50.8779ZM64.5195 62.9901L73.0664 67.7972L73.0698 77.4912L73.0732 87.1851L72.764 87.0067C72.594 86.9086 68.7197 84.7248 64.1546 82.1539L55.8543 77.4793V67.8312C55.8543 62.5247 55.8809 58.183 55.9135 58.183C55.946 58.183 59.8187 60.3462 64.5195 62.9901ZM93.146 67.8312V77.4793L84.8457 82.1539C80.2806 84.7248 76.4064 86.9086 76.2363 87.0067L75.9271 87.1851L75.9306 77.4912L75.9339 67.7972L84.4686 62.993C89.1627 60.3507 93.0354 58.1875 93.0747 58.1859C93.1139 58.1843 93.146 62.5247 93.146 67.8312Z" fill="#00A569"/>
<path fill-rule="evenodd" clip-rule="evenodd" d="M47.8818 0.143225C46.9403 0.631443 27.8466 11.4072 27.5848 11.5982C26.9659 12.0495 27.0003 11.3186 27.0003 24C27.0003 36.2712 26.9874 35.9084 27.4391 36.3041C27.6148 36.4581 46.8744 47.3408 47.7597 47.7864C48.3257 48.0712 48.6746 48.0712 49.2406 47.7864C50.1259 47.3408 69.3855 36.4581 69.5612 36.3041C70.0129 35.9084 70 36.2712 70 24C70 11.7288 70.0129 12.0915 69.5612 11.6958C69.3855 11.5418 50.1259 0.659114 49.2406 0.213574C48.725 -0.0458711 48.29 -0.0684764 47.8818 0.143225ZM57.1294 7.87789C61.8099 10.515 65.6038 12.7053 65.5603 12.7452C65.4192 12.8746 48.7431 22.2453 48.5765 22.2887C48.3938 22.3365 31.329 12.76 31.4257 12.6638C31.5721 12.5182 48.3709 3.08829 48.4884 3.08585C48.5604 3.08426 52.4488 5.24067 57.1294 7.87789ZM38.5195 19.9901L47.0664 24.7972L47.0698 34.4912L47.0732 44.1851L46.764 44.0067C46.594 43.9086 42.7197 41.7248 38.1546 39.1539L29.8543 34.4793V24.8312C29.8543 19.5247 29.8809 15.183 29.9135 15.183C29.946 15.183 33.8187 17.3462 38.5195 19.9901ZM67.146 24.8312V34.4793L58.8457 39.1539C54.2806 41.7248 50.4064 43.9086 50.2363 44.0067L49.9271 44.1851L49.9306 34.4912L49.9339 24.7972L58.4686 19.993C63.1627 17.3507 67.0354 15.1875 67.0747 15.1859C67.1139 15.1843 67.146 19.5247 67.146 24.8312Z" fill="#00A569"/>
</svg>
