<svg width="48" height="48" viewBox="0 0 48 48" fill="none" xmlns="http://www.w3.org/2000/svg">
<circle cx="24" cy="24" r="24" fill="white"/>
<path fill-rule="evenodd" clip-rule="evenodd" d="M29 13.5H19C15.9624 13.5 13.5 15.9624 13.5 19V29C13.5 32.0376 15.9624 34.5 19 34.5H29C32.0376 34.5 34.5 32.0376 34.5 29V19C34.5 15.9624 32.0376 13.5 29 13.5ZM19 11C14.5817 11 11 14.5817 11 19V29C11 33.4183 14.5817 37 19 37H29C33.4183 37 37 33.4183 37 29V19C37 14.5817 33.4183 11 29 11H19Z" fill="#00A569"/>
<path fill-rule="evenodd" clip-rule="evenodd" d="M24 27.5C25.933 27.5 27.5 25.933 27.5 24C27.5 22.067 25.933 20.5 24 20.5C22.067 20.5 20.5 22.067 20.5 24C20.5 25.933 22.067 27.5 24 27.5ZM24 30C27.3137 30 30 27.3137 30 24C30 20.6863 27.3137 18 24 18C20.6863 18 18 20.6863 18 24C18 27.3137 20.6863 30 24 30Z" fill="#00A569"/>
<path d="M32 17.5C32 18.3284 31.3284 19 30.5 19C29.6716 19 29 18.3284 29 17.5C29 16.6716 29.6716 16 30.5 16C31.3284 16 32 16.6716 32 17.5Z" fill="#00A569"/>
</svg>
