<svg width="183" height="58" viewBox="0 0 183 58" fill="none" xmlns="http://www.w3.org/2000/svg">
<circle cx="24.2063" cy="29.0476" r="24.2063" fill="#00A569"/>
<path fill-rule="evenodd" clip-rule="evenodd" d="M11.447 23.1202C11.3914 23.745 11.84 24.3514 12.6312 24.7211C13.2398 25.0055 13.6659 24.9002 14.0196 24.3781C14.3709 23.8595 14.2424 23.2979 13.647 22.7494C12.8255 21.9927 12.0153 21.9629 11.6123 22.6745C11.5303 22.8191 11.456 23.0197 11.447 23.1202ZM16.6275 16.9496C16.6256 17.1931 16.7009 17.5046 16.8787 17.9879C17.2913 19.1097 17.8979 20.1134 19.1088 21.6776C20.7976 23.8593 21.1808 24.7481 20.7907 25.5795C20.6353 25.9106 20.4571 26.0415 20.0754 26.1049C19.7423 26.1601 19.4862 26.1067 18.8635 25.8521C18.3114 25.6264 18.2913 25.6129 17.7599 25.1064C17.0551 24.4347 16.693 24.2655 16.1548 24.3565C15.3872 24.4863 15.2085 25.3954 15.8255 26.0316C15.9494 26.1593 16.2523 26.3908 16.4986 26.5461C16.9858 26.8532 17.2972 26.9692 18.5914 27.3256C19.218 27.4982 19.3487 27.5511 19.5793 27.7255C20.5772 28.48 20.433 30.0585 19.2638 31.1776C18.3539 32.0486 17.1038 32.481 15.0307 32.6415C13.2335 32.7807 12.9476 32.8457 12.5335 33.2092C11.9952 33.6819 12.0748 34.5125 12.7181 35.1351C13.0773 35.4828 13.4301 35.5932 14.165 35.5878C15.2565 35.5798 16.437 34.9945 18.7242 33.327C20.2312 32.2285 20.4359 32.097 20.8286 31.9754C21.2151 31.8558 21.4883 31.8626 21.7793 31.9992C22.1615 32.1785 22.2131 32.6039 21.9574 33.4653C21.8299 33.8947 21.4278 34.6385 20.7147 35.764C20.5421 36.0364 20.2499 36.9177 20.1872 37.355C20.0795 38.1052 20.2899 38.6017 20.8197 38.8476C21.5792 39.2001 22.4477 38.7688 22.9872 37.7712C23.385 37.0358 23.4527 36.4557 23.2928 35.1533C23.1473 33.9684 23.202 33.3908 23.5113 32.8481C24.0989 31.8167 25.0544 31.9874 25.8664 33.2689C26.3195 33.9837 26.5727 35.0594 26.5364 36.115C26.526 36.4183 26.4677 37.1143 26.407 37.6619C26.2721 38.877 26.2799 39.9147 26.4286 40.5119C26.5529 41.0115 26.8744 41.6008 27.1191 41.7779C27.479 42.0383 28.2033 41.8265 28.6128 41.3412C29.0143 40.8654 29.25 39.8928 29.252 38.7033C29.254 37.4886 29.0257 36.7117 28.2237 35.2051C27.4196 33.6944 27.1837 32.851 27.4176 32.3233C27.7096 31.6645 28.5168 31.9952 29.8067 33.3021C30.0054 33.5035 30.5844 34.1433 31.0932 34.7239C32.2691 36.0657 32.6671 36.4591 33.2285 36.8346C34.2876 37.5431 35.79 37.7499 36.5143 37.287C37.44 36.6953 37.6872 35.4176 37.092 34.302C36.7782 33.7138 36.3585 33.2694 35.6412 32.7655C34.6119 32.0425 33.5431 31.6031 31.9904 31.2646C30.6145 30.9646 30.2434 30.847 29.3107 30.4153C28.5742 30.0743 28.467 30.0103 28.3064 29.8153C27.7895 29.1878 28.0483 28.5992 28.9896 28.2611C30.0472 27.8812 31.5393 27.7518 33.6336 27.8585C34.1319 27.8839 34.6524 27.8795 34.7903 27.8489C35.0623 27.7885 35.3452 27.5687 35.5627 27.2487C35.7384 26.9905 35.7248 26.6234 35.5269 26.2786C35.4042 26.0645 35.3441 26.0174 34.9735 25.844C34.5996 25.6691 34.5101 25.6505 34.0826 25.6596C33.4212 25.6737 32.6546 25.842 31.5746 26.2104C30.1478 26.6972 29.1149 26.8034 28.5152 26.5251C28.1237 26.3434 27.9484 26.1383 27.8833 25.7856C27.8053 25.3632 27.8516 25.112 28.1094 24.5588C28.5855 23.5372 29.6357 22.4043 31.2695 21.1499C32.1014 20.5112 32.3866 20.2114 32.6241 19.7262C32.7981 19.3706 32.8255 19.2628 32.8215 18.9503C32.8126 18.2562 32.474 17.8136 31.7112 17.4984C31.1886 17.2825 30.7839 17.2918 30.3877 17.5289C29.8858 17.8294 29.8986 17.8079 28.6232 20.5151C27.9766 21.8875 27.3625 23.1419 27.2584 23.3025C26.9338 23.8037 26.7207 23.9067 26.2315 23.799C25.8405 23.7129 25.6457 23.5176 25.4875 23.0527C25.2445 22.3387 25.3392 21.3492 25.7994 19.7931C26.0699 18.8786 26.1249 18.6065 26.1181 18.2152C26.099 17.1154 25.3818 16.5408 24.6109 17.0078C23.9104 17.4321 23.7222 18.1703 23.8727 19.9048C23.9655 20.9745 23.8578 21.8879 23.5465 22.6717C23.3811 23.0878 23.3481 23.137 23.1583 23.2504C22.8711 23.4218 22.6844 23.4192 22.3554 23.239C21.5945 22.8225 20.8442 21.3908 20.0339 18.809C19.5966 17.4158 19.3864 16.9543 18.9346 16.3967C18.6975 16.1039 18.5864 16.0119 18.3167 15.8854C17.4276 15.4682 16.6354 15.9674 16.6275 16.9496ZM18.358 41.7883C18.2109 42.3046 18.2959 42.9045 18.5676 43.2682C18.791 43.5674 19.3404 43.8241 19.7155 43.8048C20.0806 43.7859 20.4173 43.647 20.7286 43.3868C20.9611 43.1924 21.0099 43.1182 21.1927 42.6805C21.5366 41.8568 21.4559 41.3503 20.9065 40.8858C20.0226 40.1385 19.1673 40.3039 18.5541 41.3408C18.4813 41.4637 18.3931 41.6651 18.358 41.7883ZM37.4782 25.6292C37.5448 26.2696 38.2726 26.8344 39.1715 26.9433C40.2023 27.0681 41.1324 26.2807 41.0958 25.3142C41.0698 24.6257 40.5237 24.2178 39.5477 24.1577C39.1299 24.1321 38.9519 24.157 38.5762 24.2939C38.252 24.412 38.0555 24.5253 37.91 24.6776C37.6318 24.9691 37.451 25.3676 37.4782 25.6292Z" fill="white"/>
<path d="M60.0317 40.3104V15.9103H68.99C71.5695 15.9103 73.8003 16.4332 75.6826 17.4789C77.5881 18.5246 79.0637 19.9654 80.1095 21.8012C81.1784 23.637 81.7129 25.7401 81.7129 28.1104C81.7129 30.4806 81.1784 32.5837 80.1095 34.4195C79.0637 36.2553 77.5881 37.6961 75.6826 38.7418C73.8003 39.7875 71.5695 40.3104 68.99 40.3104H60.0317ZM65.8877 35.4303H68.8506C70.1984 35.4303 71.3952 35.1399 72.4409 34.5589C73.5098 33.9547 74.3464 33.1065 74.9506 32.0144C75.5548 30.9222 75.8569 29.6208 75.8569 28.1104C75.8569 26.5999 75.5548 25.2985 74.9506 24.2064C74.3464 23.1142 73.5098 22.2776 72.4409 21.6966C71.3952 21.0924 70.1984 20.7904 68.8506 20.7904H65.8877V35.4303Z" fill="#222222"/>
<path d="M87.4273 47.3864V42.7504H96.3507C96.6993 42.7504 96.9897 42.6342 97.2221 42.4018C97.4545 42.1926 97.5707 41.9254 97.5707 41.6001V37.6612H97.4661C97.0014 38.1957 96.5018 38.6488 95.9673 39.0206C95.456 39.3924 94.8751 39.6713 94.2244 39.8572C93.597 40.0431 92.8882 40.1361 92.0981 40.1361C90.5179 40.1361 89.1004 39.7643 87.8456 39.0206C86.6139 38.2538 85.6379 37.1964 84.9176 35.8486C84.2204 34.5008 83.8718 32.9671 83.8718 31.2475C83.8718 29.5511 84.232 28.0058 84.9524 26.6115C85.696 25.2172 86.7766 24.1018 88.1941 23.2652C89.6117 22.4286 91.3429 22.0103 93.3878 22.0103C95.3398 22.0103 97.0246 22.417 98.4421 23.2304C99.8829 24.0204 100.998 25.1475 101.788 26.6115C102.579 28.0523 102.974 29.7486 102.974 31.7006V42.1578C102.974 43.7612 102.497 45.0277 101.544 45.9572C100.615 46.91 99.3252 47.3864 97.6753 47.3864H87.4273ZM93.4227 35.6046C94.2593 35.6046 94.9797 35.4187 95.5838 35.0469C96.188 34.6519 96.6528 34.129 96.9781 33.4784C97.3035 32.8277 97.4661 32.1073 97.4661 31.3172C97.4661 30.4806 97.3035 29.7138 96.9781 29.0166C96.6528 28.3195 96.188 27.7734 95.5838 27.3784C94.9797 26.9601 94.2593 26.7509 93.4227 26.7509C92.6094 26.7509 91.889 26.9484 91.2616 27.3435C90.6574 27.7385 90.1926 28.273 89.8673 28.9469C89.5419 29.6208 89.3793 30.3761 89.3793 31.2126C89.3793 32.026 89.5419 32.7696 89.8673 33.4435C90.1926 34.0942 90.6574 34.617 91.2616 35.0121C91.889 35.4071 92.6094 35.6046 93.4227 35.6046Z" fill="#222222"/>
<path d="M113.422 40.3104C111.772 40.3104 110.482 39.8456 109.553 38.9161C108.623 37.9633 108.158 36.6852 108.158 35.0818V18.0715H113.596V34.7681C113.596 35.0469 113.689 35.2909 113.875 35.5001C114.084 35.686 114.328 35.7789 114.607 35.7789H118.511V40.3104H113.422ZM105.23 26.8555V22.4286H118.511V26.8555H105.23Z" fill="#222222"/>
<path d="M119.79 40.3104L127.703 18.7338C128.098 17.6648 128.749 16.8631 129.655 16.3286C130.561 15.7709 131.584 15.4921 132.723 15.4921C133.861 15.4921 134.884 15.7593 135.79 16.2938C136.696 16.805 137.347 17.6067 137.742 18.6989L145.689 40.3104H139.38L137.847 35.6046H127.494L125.891 40.3104H119.79ZM128.993 30.7595H136.348L133.245 21.0344C133.199 20.8949 133.129 20.802 133.036 20.7555C132.966 20.6858 132.874 20.6509 132.757 20.6509C132.641 20.6509 132.537 20.6858 132.444 20.7555C132.374 20.8252 132.327 20.9182 132.304 21.0344L128.993 30.7595Z" fill="#222222"/>
<path d="M147.577 40.3104V27.6921C147.577 26.0654 148.042 24.7873 148.972 23.8578C149.901 22.9283 151.191 22.4635 152.841 22.4635H158.035V26.8555H154.165C153.84 26.8555 153.561 26.9717 153.329 27.2041C153.096 27.4132 152.98 27.6921 152.98 28.0406V40.3104H147.577Z" fill="#222222"/>
<path d="M167.682 40.3104C166.032 40.3104 164.742 39.8456 163.813 38.9161C162.883 37.9633 162.418 36.6852 162.418 35.0818V18.0715H167.856V34.7681C167.856 35.0469 167.949 35.2909 168.135 35.5001C168.344 35.686 168.588 35.7789 168.867 35.7789H172.771V40.3104H167.682ZM159.49 26.8555V22.4286H172.771V26.8555H159.49Z" fill="#222222"/>
</svg>
