<svg width="60" height="60" viewBox="0 0 60 60" fill="none" xmlns="http://www.w3.org/2000/svg">
<g filter="url(#filter0_d_4_422)">
<rect x="6" y="4" width="48" height="48" rx="8" fill="white"/>
<path fill-rule="evenodd" clip-rule="evenodd" d="M40 28.0001C40 28.8289 39.3057 29.5008 38.4492 29.5008L25.3061 29.5007L30.4281 34.4359C31.035 35.0207 31.0371 35.9709 30.4328 36.5582C29.8284 37.1455 28.8465 37.1475 28.2396 36.5627L20.4566 29.0634C20.1643 28.7818 20 28.3991 20 28C20 27.6009 20.1643 27.2182 20.4566 26.9366L28.2396 19.4373C28.8465 18.8525 29.8284 18.8545 30.4328 19.4418C31.0371 20.0291 31.035 20.9793 30.4281 21.5641L25.3061 26.4994L38.4492 26.4994C39.3057 26.4994 40 27.1713 40 28.0001Z" fill="#00A569"/>
</g>
<defs>
<filter id="filter0_d_4_422" x="0" y="0" width="60" height="60" filterUnits="userSpaceOnUse" color-interpolation-filters="sRGB">
<feFlood flood-opacity="0" result="BackgroundImageFix"/>
<feColorMatrix in="SourceAlpha" type="matrix" values="0 0 0 0 0 0 0 0 0 0 0 0 0 0 0 0 0 0 127 0" result="hardAlpha"/>
<feOffset dy="2"/>
<feGaussianBlur stdDeviation="3"/>
<feComposite in2="hardAlpha" operator="out"/>
<feColorMatrix type="matrix" values="0 0 0 0 0 0 0 0 0 0 0 0 0 0 0 0 0 0 0.25 0"/>
<feBlend mode="normal" in2="BackgroundImageFix" result="effect1_dropShadow_4_422"/>
<feBlend mode="normal" in="SourceGraphic" in2="effect1_dropShadow_4_422" result="shape"/>
</filter>
</defs>
</svg>
