<svg width="30" height="30" viewBox="0 0 30 30" fill="none" xmlns="http://www.w3.org/2000/svg">
<path fill-rule="evenodd" clip-rule="evenodd" d="M9.21423 11.8146C9.732 11.8146 10.1517 12.2344 10.1517 12.7521V21.3273C10.1517 21.8451 9.732 22.2648 9.21423 22.2648C8.69647 22.2648 8.27673 21.8451 8.27673 21.3273V12.7521C8.27673 12.2344 8.69647 11.8146 9.21423 11.8146Z" fill="#222222"/>
<path fill-rule="evenodd" clip-rule="evenodd" d="M15.0476 7.7114C15.5654 7.7114 15.9851 8.13113 15.9851 8.6489V21.3273C15.9851 21.8451 15.5654 22.2648 15.0476 22.2648C14.5298 22.2648 14.1101 21.8451 14.1101 21.3273V8.6489C14.1101 8.13113 14.5298 7.7114 15.0476 7.7114Z" fill="#222222"/>
<path fill-rule="evenodd" clip-rule="evenodd" d="M20.7858 16.346C21.3035 16.346 21.7233 16.7658 21.7233 17.2835V21.3273C21.7233 21.8451 21.3035 22.2648 20.7858 22.2648C20.268 22.2648 19.8483 21.8451 19.8483 21.3273V17.2835C19.8483 16.7658 20.268 16.346 20.7858 16.346Z" fill="#222222"/>
<path fill-rule="evenodd" clip-rule="evenodd" d="M3.60443 3.81721C4.95023 2.37355 6.86905 1.5625 9.14286 1.5625H20.8571C23.1363 1.5625 25.0556 2.37317 26.4004 3.81765C27.7382 5.25456 28.4375 7.2423 28.4375 9.48145V20.5186C28.4375 22.7577 27.7382 24.7454 26.4004 26.1823C25.0556 27.6268 23.1363 28.4375 20.8571 28.4375H9.14286C6.8637 28.4375 4.94438 27.6268 3.59955 26.1823C2.26178 24.7454 1.5625 22.7577 1.5625 20.5186V9.48145C1.5625 7.24115 2.26544 5.25356 3.60443 3.81721ZM4.97593 5.09573C4.01432 6.12726 3.4375 7.6304 3.4375 9.48145V20.5186C3.4375 22.3707 4.01203 23.8737 4.97187 24.9047C5.92467 25.9281 7.32678 26.5625 9.14286 26.5625H20.8571C22.6732 26.5625 24.0753 25.9281 25.0281 24.9047C25.988 23.8737 26.5625 22.3707 26.5625 20.5186V9.48145C26.5625 7.62925 25.988 6.12627 25.0281 5.09529C24.0753 4.07188 22.6732 3.4375 20.8571 3.4375H9.14286C7.33333 3.4375 5.93072 4.07151 4.97593 5.09573Z" fill="#222222"/>
</svg>
