<svg width="30" height="30" viewBox="0 0 30 30" fill="none" xmlns="http://www.w3.org/2000/svg">
<path fill-rule="evenodd" clip-rule="evenodd" d="M21.3008 11.5001C21.71 11.8172 21.7848 12.406 21.4676 12.8153L17.8063 17.5407C17.6534 17.7381 17.428 17.8664 17.1801 17.897C16.9323 17.9276 16.6825 17.858 16.4861 17.7038L12.9631 14.9363L9.7991 19.0485C9.48336 19.4589 8.89475 19.5356 8.48439 19.2199C8.07403 18.9041 7.99732 18.3155 8.31306 17.9051L12.0545 13.0424C12.2071 12.8441 12.4327 12.715 12.681 12.6839C12.9293 12.6528 13.1798 12.7223 13.3766 12.8769L16.9022 15.6463L19.9855 11.6669C20.3026 11.2576 20.8915 11.1829 21.3008 11.5001Z" fill="#222222"/>
<path fill-rule="evenodd" clip-rule="evenodd" d="M24.9943 3.78503C24.1851 3.78503 23.5291 4.44105 23.5291 5.25028C23.5291 6.05951 24.1851 6.71553 24.9943 6.71553C25.8035 6.71553 26.4595 6.05951 26.4595 5.25028C26.4595 4.44105 25.8035 3.78503 24.9943 3.78503ZM21.6541 5.25028C21.6541 3.40551 23.1495 1.91003 24.9943 1.91003C26.8391 1.91003 28.3345 3.40551 28.3345 5.25028C28.3345 7.09505 26.8391 8.59053 24.9943 8.59053C23.1495 8.59053 21.6541 7.09505 21.6541 5.25028Z" fill="#222222"/>
<path fill-rule="evenodd" clip-rule="evenodd" d="M4.4226 5.06631C5.67241 3.71814 7.45607 2.96268 9.57093 2.96268H18.6556C19.1734 2.96268 19.5931 3.38241 19.5931 3.90018C19.5931 4.41794 19.1734 4.83768 18.6556 4.83768H9.57093C7.92149 4.83768 6.65595 5.41516 5.79764 6.34103C4.93189 7.27491 4.41003 8.64058 4.41003 10.3304V20.4334C4.41003 22.1279 4.92318 23.4895 5.7814 24.418C6.63137 25.3375 7.89483 25.9146 9.57093 25.9146H20.3261C21.9768 25.9146 23.2424 25.3391 24.1002 24.4161C24.9652 23.4854 25.487 22.123 25.487 20.4334V11.6347C25.487 11.117 25.9067 10.6972 26.4245 10.6972C26.9422 10.6972 27.362 11.117 27.362 11.6347V20.4334C27.362 22.508 26.7167 24.355 25.4736 25.6926C24.2233 27.0379 22.4397 27.7896 20.3261 27.7896H9.57093C7.43696 27.7896 5.65123 27.0395 4.40451 25.6907C3.16605 24.3509 2.53503 22.5031 2.53503 20.4334V10.3304C2.53503 8.25588 3.18023 6.40645 4.4226 5.06631Z" fill="#222222"/>
</svg>
