<svg width="24" height="24" viewBox="0 0 24 24" fill="none" xmlns="http://www.w3.org/2000/svg">
<path fill-rule="evenodd" clip-rule="evenodd" d="M3.52636 3.68671C4.53385 2.60583 5.96907 2.00021 7.66537 2.00021H16.3344C18.0347 2.00021 19.4705 2.60551 20.4775 3.68699C21.4789 4.76244 22.0004 6.24782 22.0004 7.91621V16.0842C22.0004 17.7526 21.4789 19.238 20.4773 20.3135C19.4702 21.395 18.0341 22.0002 16.3334 22.0002H7.66537C5.96506 22.0002 4.52943 21.3949 3.52265 20.3134C2.52152 19.2379 2.00037 17.7525 2.00037 16.0842V7.91621C2.00037 6.24699 2.52433 4.76174 3.52636 3.68671ZM4.62362 4.70947C3.9234 5.46069 3.50037 6.55844 3.50037 7.91621V16.0842C3.50037 17.4429 3.92171 18.5406 4.62058 19.2913C5.3138 20.036 6.33567 20.5002 7.66537 20.5002H16.3334C17.6636 20.5002 18.6861 20.036 19.3796 19.2912C20.0788 18.5404 20.5004 17.4428 20.5004 16.0842V7.91621C20.5004 6.55761 20.0788 5.45999 19.3797 4.70918C18.6862 3.96442 17.6641 3.50021 16.3344 3.50021H7.66537C6.34066 3.50021 5.31838 3.96409 4.62362 4.70947Z" fill="white"/>
<path fill-rule="evenodd" clip-rule="evenodd" d="M16.0901 9.0969C16.383 9.38979 16.383 9.86466 16.0901 10.1576L11.3441 14.9036C11.0513 15.1964 10.5765 15.1965 10.2836 14.9037L7.9096 12.5307C7.61665 12.2378 7.61655 11.763 7.90938 11.47C8.20221 11.1771 8.67708 11.177 8.97004 11.4698L10.8137 13.3127L15.0295 9.0969C15.3224 8.804 15.7973 8.804 16.0901 9.0969Z" fill="white"/>
</svg>
