<svg width="48" height="48" viewBox="0 0 48 48" fill="none" xmlns="http://www.w3.org/2000/svg">
<circle cx="24" cy="24" r="24" fill="#00A569"/>
<path d="M34.0398 21.8879C31.5396 20.3346 28.1093 19.3741 24.3296 19.3741C20.6039 19.3741 17.2194 20.3082 14.7273 21.8225C14.2708 22.1 13.8443 22.3973 13.4506 22.7122C12.2204 23.6957 11.3198 24.8492 10.8503 26.1063L34.0398 21.8879ZM34.0398 21.8879C34.4976 22.1716 34.9229 22.4759 35.3146 22.7978L34.0398 21.8879ZM28.5535 31.5833L28.5539 31.5829C29.0503 31.0906 29.8528 31.0906 30.3492 31.5841C30.8469 32.079 30.8459 32.8819 30.3486 33.3769L30.3484 33.3771C29.0397 34.6783 27.0575 35.2587 24.418 35.2587C24.4116 35.2587 24.4054 35.2586 24.3994 35.2584C24.3935 35.2586 24.3873 35.2587 24.3808 35.2587C21.741 35.2587 19.7589 34.6784 18.4513 33.3761M28.5535 31.5833L18.8041 33.0218M28.5535 31.5833C27.8252 32.3074 26.527 32.725 24.418 32.725C24.4115 32.725 24.4053 32.7251 24.3994 32.7253M28.5535 31.5833L24.3994 32.7253M18.4513 33.3761L18.8041 33.0218M18.4513 33.3761C18.4516 33.3763 18.4518 33.3766 18.4521 33.3768L18.8041 33.0218M18.4513 33.3761C17.9533 32.8814 17.9549 32.0785 18.4511 31.5838C18.9468 31.0897 19.7502 31.0896 20.246 31.5836M18.8041 33.0218C18.5031 32.7233 18.5031 32.238 18.8041 31.9379C19.1047 31.6382 19.5926 31.6382 19.8932 31.9379M20.246 31.5836L19.8932 31.9379M20.246 31.5836C20.973 32.3073 22.2712 32.725 24.3808 32.725C24.3873 32.725 24.3935 32.7251 24.3994 32.7253M20.246 31.5836C20.2461 31.5836 20.2461 31.5837 20.2462 31.5838L19.8932 31.9379M19.8932 31.9379L24.3994 32.7253M39.3444 24.571C39.4822 24.3053 39.5599 24.0049 39.5602 23.687L39.3444 24.571ZM39.3444 24.571C38.8263 23.5585 38.0943 22.6219 37.1943 21.7827C37.3257 21.7546 37.462 21.7399 37.6018 21.7399C38.6832 21.7399 39.5599 22.6157 39.5602 23.6869L39.3444 24.571ZM34.9321 20.0875C32.5385 18.6346 29.4977 17.6726 26.1535 17.4135L27.7483 12.3948L32.2074 13.4402C32.4601 15.2938 34.0554 16.7259 35.9834 16.7259C38.0849 16.7259 39.7979 15.0241 39.7979 12.926C39.7979 10.8279 38.0845 9.12608 35.9834 9.12608C34.6011 9.12608 33.3931 9.86297 32.7245 10.9588L27.1832 9.66077L27.1828 9.66069C26.5399 9.51056 25.8823 9.87781 25.6827 10.5123C25.6826 10.5126 25.6825 10.5128 25.6824 10.5131L23.5073 17.3579C19.8059 17.4862 16.4249 18.472 13.8056 20.0401C13.0702 19.5167 12.1697 19.2065 11.1986 19.2065H11.1985C8.71946 19.2069 6.7 21.2142 6.7 23.6875C6.7 25.1477 7.40584 26.442 8.48904 27.2582C8.4567 27.5378 8.43955 27.8207 8.43955 28.1067C8.43955 31.1566 10.299 33.8604 13.1746 35.7787C16.054 37.6995 20.001 38.8731 24.3296 38.8731C28.6579 38.8731 32.6049 37.6995 35.4843 35.7787C38.36 33.8604 40.2197 31.1567 40.2197 28.1067C40.2197 27.8521 40.2062 27.6 40.1805 27.3505C41.336 26.5427 42.1 25.2056 42.1 23.6875C42.1 21.2143 40.0806 19.2065 37.6014 19.2065C36.6009 19.2065 35.6781 19.5364 34.9321 20.0875ZM11.3187 26.2811C11.7499 25.1266 12.5867 24.043 13.7629 23.1027L13.7629 23.1026C14.139 22.8019 14.5478 22.5167 14.987 22.2498C17.3904 20.7893 20.6824 19.8741 24.3296 19.8741C28.03 19.8741 31.366 20.8154 33.776 22.3126L33.7764 22.3129C34.216 22.5853 34.6231 22.8768 34.9971 23.1841L34.9975 23.1844C36.1255 24.1094 36.9276 25.1696 37.346 26.2977C37.5114 26.7462 37.6191 27.2029 37.6595 27.6665C37.6722 27.8161 37.6795 27.9621 37.6795 28.1075C37.6795 30.2818 36.275 32.3283 33.8514 33.8564C31.4347 35.3801 28.0678 36.3401 24.3296 36.3401C20.5909 36.3401 17.2239 35.3802 14.8074 33.8565C12.384 32.3285 10.9797 30.2821 10.9797 28.1075C10.9797 27.9564 10.9881 27.8046 11.0019 27.6486C11.0441 27.1844 11.1522 26.7275 11.3187 26.2812L11.3187 26.2811ZM19.265 29.1037H19.2656C20.8379 29.1018 22.1171 27.8326 22.1171 26.2616C22.1171 24.7004 20.8479 23.384 19.265 23.384C17.6923 23.384 16.3773 24.6906 16.3773 26.2616C16.3773 27.8419 17.7025 29.1037 19.265 29.1037ZM32.4234 26.2604V26.2601C32.4225 24.6982 31.1533 23.3832 29.5706 23.3832C27.9989 23.3832 26.6794 24.6884 26.6794 26.2604C26.6794 27.8425 28.0086 29.1026 29.5706 29.1026C31.1434 29.1026 32.4234 27.8329 32.4234 26.2604ZM24 47.5C11.0213 47.5 0.5 36.9787 0.5 24C0.5 11.0213 11.0213 0.5 24 0.5C36.9787 0.5 47.5 11.0213 47.5 24C47.5 36.9787 36.9787 47.5 24 47.5ZM35.9834 11.6603C36.6877 11.6603 37.2578 12.2311 37.2578 12.9272C37.2578 13.6231 36.6878 14.1937 35.9834 14.1937C35.2786 14.1937 34.7087 13.623 34.7087 12.9272C34.7087 12.2312 35.2787 11.6603 35.9834 11.6603ZM9.24018 23.6875C9.24018 22.6163 10.1171 21.7399 11.1982 21.7399C11.296 21.7399 11.3921 21.7472 11.4861 21.7614C10.6175 22.5679 9.90626 23.4653 9.3897 24.433C9.29324 24.2032 9.24018 23.9514 9.24018 23.6875Z" fill="white" stroke="white"/>
</svg>
