<svg width="30" height="30" viewBox="0 0 30 30" fill="none" xmlns="http://www.w3.org/2000/svg">
<path d="M23.2937 19.375C21.7218 22.3486 18.5976 24.375 15 24.375C9.82233 24.375 5.625 20.1777 5.625 15C5.625 9.82233 9.82233 5.625 15 5.625C18.5976 5.625 21.7218 7.65137 23.2937 10.625H26.713C24.9396 5.87917 20.3644 2.5 15 2.5C8.09644 2.5 2.5 8.09644 2.5 15C2.5 21.9036 8.09644 27.5 15 27.5C20.3644 27.5 24.9396 24.1208 26.713 19.375H23.2937Z" fill="#7D7D7D"/>
<path d="M27.1382 13.5935L21.0198 10.1185L27.0885 6.55727L27.1382 13.5935Z" fill="#7D7D7D"/>
</svg>
