<svg width="30" height="30" viewBox="0 0 30 30" fill="none" xmlns="http://www.w3.org/2000/svg">
<path d="M27.5 6.25C27.5 8.32107 25.8211 10 23.75 10C21.6789 10 20 8.32107 20 6.25C20 4.17893 21.6789 2.5 23.75 2.5C25.8211 2.5 27.5 4.17893 27.5 6.25Z" fill="#7D7D7D"/>
<path d="M10 15C10 17.0711 8.32107 18.75 6.25 18.75C4.17893 18.75 2.5 17.0711 2.5 15C2.5 12.9289 4.17893 11.25 6.25 11.25C8.32107 11.25 10 12.9289 10 15Z" fill="#7D7D7D"/>
<path d="M27.5 25C27.5 27.0711 25.8211 28.75 23.75 28.75C21.6789 28.75 20 27.0711 20 25C20 22.9289 21.6789 21.25 23.75 21.25C25.8211 21.25 27.5 22.9289 27.5 25Z" fill="#7D7D7D"/>
<path fill-rule="evenodd" clip-rule="evenodd" d="M23.191 5.13197L24.309 7.36803L8.89808 15.0735L24.3702 23.9147L23.1298 26.0853L3.60192 14.9265L23.191 5.13197Z" fill="#7D7D7D"/>
</svg>
