<svg width="48" height="48" viewBox="0 0 48 48" fill="none" xmlns="http://www.w3.org/2000/svg">
<circle cx="24" cy="24" r="24" fill="white"/>
<path fill-rule="evenodd" clip-rule="evenodd" d="M19.4088 30.1064C19.857 30.3363 20.3562 30.4563 20.8629 30.4561C22.5508 30.4561 23.9287 29.1511 23.9909 27.5246L23.9971 13H27.7254C27.7257 13.3085 27.7553 13.6163 27.8135 13.9196H25.0837V13.9201H28.8124C28.8119 15.1357 29.2652 16.3102 30.0882 17.2255L30.0893 17.2266C30.9288 17.7597 31.9101 18.0431 32.9129 18.0422V18.8493C33.2639 18.9224 33.6268 18.9613 34 18.9613V22.5861C32.1386 22.5882 30.3237 22.021 28.8125 20.9647V28.3298C28.8125 32.0075 25.7338 35 21.9495 35C21.0071 35.0002 20.0749 34.8113 19.2111 34.4449C18.3479 34.0789 17.5719 33.5436 16.9313 32.8726L16.9299 32.8716C15.1602 31.6639 14 29.6665 14 27.4102C14 23.7319 17.0787 20.739 20.8629 20.739C21.1724 20.7404 21.4814 20.7623 21.7878 20.8045V21.6625C21.8093 21.6621 21.8307 21.6614 21.8522 21.6607C21.8845 21.6596 21.9168 21.6585 21.9495 21.6585C22.2589 21.6599 22.5679 21.6818 22.8743 21.724V25.424C22.5819 25.3348 22.2725 25.2828 21.9495 25.2828C21.1185 25.2838 20.3218 25.6051 19.7342 26.1764C19.1466 26.7476 18.8161 27.522 18.8153 28.3297C18.8154 28.9677 19.0228 29.5894 19.408 30.106L19.4088 30.1064ZM15.5392 30.7099C15.8578 31.5165 16.3331 32.2482 16.9284 32.8701C16.321 32.2382 15.8519 31.5034 15.5392 30.7099Z" fill="#00A569"/>
</svg>
