<svg width="32" height="32" viewBox="0 0 32 32" fill="none" xmlns="http://www.w3.org/2000/svg">
<path fill-rule="evenodd" clip-rule="evenodd" d="M26.6667 4.66669H5.33335C4.96516 4.66669 4.66669 4.96516 4.66669 5.33335V26.6667C4.66669 27.0349 4.96516 27.3334 5.33335 27.3334H26.6667C27.0349 27.3334 27.3334 27.0349 27.3334 26.6667V5.33335C27.3334 4.96516 27.0349 4.66669 26.6667 4.66669ZM5.33335 2.66669C3.86059 2.66669 2.66669 3.86059 2.66669 5.33335V26.6667C2.66669 28.1394 3.86059 29.3334 5.33335 29.3334H26.6667C28.1394 29.3334 29.3334 28.1394 29.3334 26.6667V5.33335C29.3334 3.86059 28.1394 2.66669 26.6667 2.66669H5.33335Z" fill="#7D7D7D"/>
<path fill-rule="evenodd" clip-rule="evenodd" d="M26.6667 11.3333H18.6667C18.2985 11.3333 18 11.6318 18 12V20C18 20.3682 18.2985 20.6666 18.6667 20.6666H26.6667C27.0349 20.6666 27.3333 20.3682 27.3333 20V12C27.3333 11.6318 27.0349 11.3333 26.6667 11.3333ZM18.6667 9.33331C17.1939 9.33331 16 10.5272 16 12V20C16 21.4727 17.1939 22.6666 18.6667 22.6666H26.6667C28.1394 22.6666 29.3333 21.4727 29.3333 20V12C29.3333 10.5272 28.1394 9.33331 26.6667 9.33331H18.6667Z" fill="#7D7D7D"/>
<path d="M22.6667 16C22.6667 16.7364 22.0697 17.3334 21.3333 17.3334C20.597 17.3334 20 16.7364 20 16C20 15.2636 20.597 14.6667 21.3333 14.6667C22.0697 14.6667 22.6667 15.2636 22.6667 16Z" fill="#7D7D7D"/>
</svg>
