<svg width="30" height="30" viewBox="0 0 30 30" fill="none" xmlns="http://www.w3.org/2000/svg">
<path fill-rule="evenodd" clip-rule="evenodd" d="M1.66697 14.0919C11.835 5.2561 18.0215 5.3462 28.3221 14.1017C28.8888 14.5834 28.8933 15.4267 28.3315 15.9136C18.2191 24.6781 12.0494 24.7166 1.67803 15.9023C1.11193 15.4212 1.10646 14.5789 1.66697 14.0919ZM15.0008 20.6262C18.2456 20.6262 20.8759 18.1085 20.8759 15.0026C20.8759 11.8968 18.2456 9.37903 15.0008 9.37903C11.7561 9.37903 9.12569 11.8968 9.12569 15.0026C9.12569 18.1085 11.7561 20.6262 15.0008 20.6262Z" fill="#7D7D7D"/>
<path d="M18.2648 15.0026C18.2648 16.7281 16.8035 18.1269 15.0008 18.1269C13.1982 18.1269 11.7369 16.7281 11.7369 15.0026C11.7369 13.2772 13.1982 11.8784 15.0008 11.8784C16.8035 11.8784 18.2648 13.2772 18.2648 15.0026Z" fill="#7D7D7D"/>
</svg>
